<?xml version="1.0" standalone="no"?>
<!DOCTYPE svg PUBLIC "-//W3C//DTD SVG 20010904//EN"
 "http://www.w3.org/TR/2001/REC-SVG-20010904/DTD/svg10.dtd">
<svg version="1.0" xmlns="http://www.w3.org/2000/svg"
 width="2441.000000pt" height="2441.000000pt" viewBox="0 0 2441.000000 2441.000000"
 preserveAspectRatio="xMidYMid meet">
<metadata>
Created by potrace 1.15, written by Peter Selinger 2001-2017
</metadata>
<g transform="translate(0.000000,2441.000000) scale(0.100000,-0.100000)"
fill="#000000" stroke="none">
<path d="M7645 23449 c-3944 -527 -7173 -958 -7177 -959 -5 0 -8 -4616 -8
-10259 l0 -10259 33 -6 c64 -11 14355 -1966 14376 -1966 l21 0 0 1050 0 1050
3858 3 3857 3 93 22 c278 65 491 171 700 346 269 226 461 561 528 921 18 97
19 353 19 8845 l0 8745 -22 110 c-123 603 -549 1064 -1133 1225 -193 53 47 50
-4077 50 l-3823 0 0 1020 0 1020 -37 -1 c-21 -1 -3264 -432 -7208 -960z
m14920 -2007 c113 -38 193 -88 280 -176 93 -93 145 -182 175 -302 20 -77 20
-151 20 -8729 0 -8598 0 -8652 -20 -8729 -30 -118 -82 -208 -175 -302 -84 -85
-184 -144 -305 -182 -51 -16 -304 -17 -3780 -20 -2049 -2 -3758 0 -3797 3
l-73 7 0 9223 0 9224 28 4 c15 2 1726 4 3802 3 l3775 -1 70 -23z m-15766
-4902 c31 -5 83 -14 116 -19 169 -29 291 -87 552 -262 109 -73 216 -145 238
-161 22 -16 110 -75 195 -131 85 -57 182 -122 215 -145 33 -23 206 -140 385
-259 411 -274 1091 -729 1150 -770 25 -17 99 -66 165 -109 133 -87 235 -183
278 -262 71 -131 76 -286 11 -381 -13 -20 -24 -45 -24 -57 0 -30 -70 -116
-131 -161 -42 -32 -50 -42 -47 -64 3 -21 1 -25 -13 -22 -11 3 -168 -95 -431
-269 -1704 -1133 -2143 -1423 -2208 -1461 -76 -44 -193 -87 -237 -87 -23 0
-61 -8 -85 -19 -115 -49 -397 -44 -612 11 -149 38 -236 84 -511 268 -55 37
-390 260 -745 495 -355 236 -860 571 -1123 747 -263 175 -484 318 -492 318 -8
0 -15 7 -15 16 0 8 -36 50 -80 91 -44 42 -95 101 -113 132 -117 199 -76 412
113 588 19 18 222 158 450 311 228 154 548 368 710 477 494 332 1070 716 1175
785 55 35 125 83 155 105 77 58 257 170 316 196 27 12 58 26 69 32 28 14 119
37 195 48 36 6 83 14 105 18 57 12 209 13 274 1z m706 -5425 c88 0 196 4 240
9 78 8 82 7 111 -17 44 -37 77 -112 82 -183 4 -52 1 -64 -19 -88 -17 -19 -34
-27 -59 -28 -58 -2 -78 11 -121 73 -31 47 -45 59 -62 57 -22 -3 -22 -4 -22
-247 l0 -244 45 -32 c37 -26 46 -38 48 -68 6 -66 -55 -87 -253 -87 -203 0
-280 26 -273 94 2 24 11 35 37 48 58 29 61 37 71 159 11 129 13 323 4 357 -10
37 -41 26 -84 -33 -46 -63 -68 -77 -118 -77 -51 0 -72 29 -72 97 0 66 26 130
77 185 l37 42 86 -8 c47 -5 157 -9 245 -9z m-3287 -25 c108 -61 125 -218 34
-313 -25 -26 -26 -29 -10 -40 82 -56 101 -73 118 -107 25 -48 27 -145 5 -198
-24 -56 -92 -119 -153 -142 -48 -18 -78 -20 -357 -20 -292 0 -306 1 -325 20
-29 29 -25 64 10 93 17 14 34 37 40 51 12 31 30 271 30 398 0 115 -9 142 -54
169 -19 11 -36 29 -39 41 -6 22 8 57 27 71 6 4 151 6 321 5 310 -3 310 -3 353
-28z m2052 -120 l0 -69 33 -6 c17 -3 57 -6 87 -8 l55 -2 3 -58 c3 -54 1 -58
-23 -67 -15 -6 -55 -10 -91 -10 l-64 0 0 -122 c0 -148 9 -174 60 -171 19 1 51
5 71 8 33 6 37 5 46 -22 15 -45 -2 -89 -48 -123 -68 -49 -117 -63 -211 -59
-103 5 -153 32 -187 101 -19 40 -21 61 -21 221 l0 177 -39 0 c-62 0 -71 7 -71
54 l0 43 143 91 c135 86 145 90 200 91 l57 1 0 -70z m-1314 -108 c93 -48 144
-112 170 -214 38 -146 -34 -275 -195 -352 -63 -29 -72 -31 -186 -31 -111 0
-124 2 -170 27 -62 33 -108 80 -134 138 -26 56 -28 175 -5 243 29 85 123 169
227 203 67 22 241 14 293 -14z m2031 -20 c35 -46 52 -106 36 -131 -15 -23 -50
-39 -77 -34 -13 3 -45 22 -71 44 -50 42 -75 48 -95 24 -20 -24 -5 -41 69 -80
85 -45 154 -103 171 -145 7 -17 11 -53 8 -85 -6 -66 -41 -117 -109 -153 -43
-23 -49 -24 -194 -17 -107 5 -157 11 -173 21 -50 33 -91 171 -60 202 26 26 63
13 120 -43 56 -55 91 -68 116 -43 18 18 -3 45 -59 73 -60 31 -125 88 -146 129
-9 18 -16 55 -16 88 0 75 38 141 102 175 41 21 54 23 194 20 l151 -2 33 -43z
m1286 0 l8 -43 49 45 c47 44 52 46 107 46 65 0 95 -15 118 -60 21 -41 19 -118
-5 -157 -43 -71 -151 -88 -213 -33 -19 17 -39 30 -45 30 -15 0 -22 -38 -21
-115 2 -103 9 -128 44 -144 69 -32 83 -69 42 -117 -22 -25 -31 -27 -123 -33
-124 -8 -240 1 -279 20 -24 11 -31 21 -33 51 -3 30 3 42 31 71 34 33 35 37 42
140 9 127 4 152 -34 172 -60 31 -47 90 28 123 79 36 143 51 211 49 l64 -2 9
-43z m789 32 c26 -8 62 -31 81 -49 44 -43 57 -98 57 -241 0 -106 9 -144 34
-144 23 0 39 -28 32 -56 -4 -14 -24 -44 -44 -66 -63 -68 -180 -81 -237 -28
l-25 23 -54 -27 c-73 -37 -176 -39 -238 -4 -57 32 -91 96 -85 160 9 99 95 162
245 179 47 5 90 15 94 22 8 14 -1 94 -14 120 -16 32 -54 20 -95 -28 -49 -59
-77 -77 -120 -77 -44 0 -73 26 -73 67 0 59 61 112 168 146 73 23 211 25 274 3z
m598 -7 c0 -13 3 -26 6 -29 3 -4 30 7 61 23 44 23 68 29 119 29 83 0 120 -16
171 -74 55 -62 77 -129 76 -231 0 -66 -5 -92 -28 -143 -31 -69 -103 -144 -161
-168 -42 -18 -147 -20 -187 -5 -42 16 -47 14 -47 -19 0 -21 9 -36 35 -57 41
-32 46 -72 16 -102 -27 -27 -74 -34 -184 -29 -153 7 -260 66 -243 132 4 15 17
31 29 37 13 6 29 19 35 30 16 25 27 241 18 341 -7 72 -9 77 -34 83 -40 10 -52
24 -52 61 0 49 49 81 205 132 17 6 60 11 98 11 64 1 67 0 67 -22z m-3880 -53
c45 -39 78 -95 96 -166 38 -146 -34 -275 -195 -352 -58 -27 -75 -31 -146 -29
-107 2 -115 3 -115 13 0 4 -11 11 -24 14 -14 3 -40 20 -58 36 -26 24 -39 29
-61 24 -36 -8 -54 8 -83 71 -18 38 -24 68 -24 126 0 97 21 156 76 218 58 64
67 67 229 77 55 3 127 9 160 13 66 8 91 0 145 -45z"/>
<path d="M6554 15317 c-103 -34 -169 -75 -444 -276 -102 -74 -258 -183 -346
-242 -89 -60 -172 -122 -184 -139 -13 -18 -25 -51 -27 -74 -4 -35 -1 -47 22
-74 27 -32 27 -32 121 -32 l94 0 44 -46 c85 -89 375 -527 481 -727 60 -112 63
-134 39 -212 -31 -96 9 -155 103 -155 30 0 63 5 73 10 11 6 93 66 182 133 90
68 276 197 413 288 277 184 343 243 407 364 47 92 61 161 56 276 -3 79 -9 104
-35 161 -18 37 -52 89 -77 116 -86 92 -186 126 -354 120 l-97 -3 0 130 c0 120
-2 134 -27 187 -34 73 -99 143 -163 176 -42 21 -66 26 -145 29 -60 2 -110 -2
-136 -10z m-117 -428 c84 -40 173 -172 173 -256 0 -33 -7 -50 -31 -78 -45 -51
-65 -60 -93 -41 -23 14 -160 201 -206 279 -21 35 -21 38 -5 63 17 27 66 53 99
54 11 0 39 -9 63 -21z m453 -539 c91 -47 181 -195 165 -272 -9 -39 -61 -97
-102 -115 -29 -11 -37 -11 -62 2 -55 28 -231 264 -231 309 0 29 47 74 96 91
43 16 82 11 134 -15z"/>
<path d="M3906 10974 c-3 -9 -6 -51 -6 -94 0 -43 3 -85 6 -94 6 -16 50 -22 70
-8 39 26 48 142 13 186 -23 30 -73 36 -83 10z"/>
<path d="M3904 10604 c-9 -37 3 -163 17 -180 6 -8 26 -14 44 -14 49 0 75 37
75 106 0 71 -34 114 -91 114 -33 0 -40 -4 -45 -26z"/>
<path d="M4710 10711 c-15 -29 -12 -79 10 -166 26 -100 42 -125 80 -125 54 0
63 55 30 185 -11 43 -27 89 -35 102 -20 29 -70 32 -85 4z"/>
<path d="M9682 10687 c-7 -7 -15 -65 -18 -128 -8 -129 -2 -143 58 -137 26 2
37 10 51 38 25 49 20 168 -9 207 -23 31 -65 41 -82 20z"/>
<path d="M5460 10711 c-15 -29 -12 -79 10 -166 26 -100 42 -125 80 -125 54 0
63 55 30 185 -11 43 -27 89 -35 102 -20 29 -70 32 -85 4z"/>
</g>
</svg>
