<?xml version="1.0" standalone="no"?>
<!DOCTYPE svg PUBLIC "-//W3C//DTD SVG 20010904//EN"
 "http://www.w3.org/TR/2001/REC-SVG-20010904/DTD/svg10.dtd">
<svg version="1.0" xmlns="http://www.w3.org/2000/svg"
 width="300.000000pt" height="300.000000pt" viewBox="0 0 300.000000 300.000000"
 preserveAspectRatio="xMidYMid meet">
<metadata>
Created by potrace 1.15, written by Peter Selinger 2001-2017
</metadata>
<g transform="translate(0.000000,300.000000) scale(0.100000,-0.100000)"
fill="#000000" stroke="none">
<path d="M2064 731 c2 -17 -2 -32 -9 -35 -21 -8 -35 -61 -22 -86 17 -33 57
-60 92 -63 30 -2 30 -2 33 59 3 57 1 64 -24 83 -15 12 -33 21 -41 21 -10 0
-11 5 -4 19 11 20 5 31 -15 31 -9 0 -12 -10 -10 -29z"/>
</g>
</svg>
