<?xml version="1.0" standalone="no"?>
<!DOCTYPE svg PUBLIC "-//W3C//DTD SVG 20010904//EN"
 "http://www.w3.org/TR/2001/REC-SVG-20010904/DTD/svg10.dtd">
<svg version="1.0" xmlns="http://www.w3.org/2000/svg"
 width="500.000000pt" height="500.000000pt" viewBox="0 0 500.000000 500.000000"
 preserveAspectRatio="xMidYMid meet">
<metadata>
Created by potrace 1.15, written by Peter Selinger 2001-2017
</metadata>
<g transform="translate(0.000000,500.000000) scale(0.100000,-0.100000)"
fill="#000000" stroke="none">
<path d="M2178 4905 c-1096 -150 -1939 -995 -2083 -2088 -20 -155 -20 -469 0
-624 48 -365 183 -726 383 -1028 278 -418 680 -741 1147 -920 284 -109 542
-155 865 -155 323 0 581 46 865 155 827 317 1414 1064 1530 1948 20 155 20
469 0 624 -48 365 -183 726 -383 1028 -352 529 -902 902 -1519 1030 -221 45
-590 59 -805 30z m652 -189 c723 -124 1328 -574 1645 -1221 107 -218 186 -486
215 -723 6 -51 11 -167 11 -257 0 -264 -33 -464 -117 -714 -269 -808 -1000
-1399 -1852 -1501 -120 -14 -394 -14 -514 0 -494 59 -966 288 -1318 640 -352
352 -581 824 -640 1318 -14 120 -14 394 0 514 109 916 777 1677 1670 1903 284
72 627 87 900 41z"/>
</g>
</svg>
