<?xml version="1.0" standalone="no"?>
<!DOCTYPE svg PUBLIC "-//W3C//DTD SVG 20010904//EN"
 "http://www.w3.org/TR/2001/REC-SVG-20010904/DTD/svg10.dtd">
<svg version="1.0" xmlns="http://www.w3.org/2000/svg"
 width="2441.000000pt" height="2441.000000pt" viewBox="0 0 2441.000000 2441.000000"
 preserveAspectRatio="xMidYMid meet">
<metadata>
Created by potrace 1.15, written by Peter Selinger 2001-2017
</metadata>
<g transform="translate(0.000000,2441.000000) scale(0.100000,-0.100000)"
fill="#000000" stroke="none">
<path d="M7645 23449 c-3944 -527 -7173 -958 -7177 -959 -5 0 -8 -4616 -8
-10259 l0 -10259 33 -6 c64 -11 14355 -1966 14376 -1966 l21 0 0 1050 0 1050
3858 3 3857 3 93 22 c278 65 491 171 700 346 269 226 461 561 528 921 18 97
19 353 19 8845 l0 8745 -22 110 c-123 603 -549 1064 -1133 1225 -193 53 47 50
-4077 50 l-3823 0 0 1020 0 1020 -37 -1 c-21 -1 -3264 -432 -7208 -960z
m14920 -2007 c113 -38 193 -88 280 -176 93 -93 145 -182 175 -302 20 -77 20
-151 20 -8729 0 -8598 0 -8652 -20 -8729 -30 -118 -82 -208 -175 -302 -84 -85
-184 -144 -305 -182 -51 -16 -304 -17 -3780 -20 -2049 -2 -3758 0 -3797 3
l-73 7 0 9223 0 9224 28 4 c15 2 1726 4 3802 3 l3775 -1 70 -23z m-19498
-4332 c59 -12 129 -28 154 -36 64 -20 120 -20 214 0 44 9 105 19 135 21 30 3
82 7 115 9 33 3 73 10 88 15 46 18 2600 14 2698 -3 103 -19 159 -45 223 -106
79 -75 101 -130 101 -255 0 -88 -3 -107 -27 -157 -49 -106 -149 -191 -338
-291 -46 -24 -91 -55 -100 -69 -8 -13 -29 -46 -47 -72 -42 -63 -56 -137 -51
-255 4 -89 56 -285 672 -2575 l668 -2479 -422 -1686 c-231 -927 -425 -1703
-431 -1723 l-10 -38 -774 0 c-728 0 -774 1 -779 18 -2 9 -14 50 -26 89 -15 54
-18 78 -10 92 13 26 13 28 -7 33 -15 4 -142 457 -658 2339 -352 1284 -640
2349 -640 2367 0 18 -5 36 -11 40 -13 9 -928 3346 -929 3388 0 17 -5 37 -11
45 -6 8 -24 52 -39 99 -15 47 -44 122 -66 166 -52 109 -106 157 -263 233 -143
69 -203 119 -245 203 -45 89 -43 104 19 112 28 4 50 9 50 12 0 3 -15 24 -34
45 -72 84 -70 168 5 253 54 61 90 79 158 78 52 0 57 2 91 40 31 35 45 42 100
53 105 21 302 18 427 -5z m7502 -3219 l854 -3240 -405 -1618 -404 -1618 -784
0 -784 0 -829 3125 -828 3125 423 1732 423 1733 740 0 740 0 854 -3239z m2987
3217 c133 -41 200 -104 229 -214 29 -112 14 -226 -40 -304 -37 -53 -93 -90
-272 -180 -214 -107 -301 -165 -414 -280 -174 -176 -319 -428 -419 -727 -27
-81 -243 -899 -481 -1818 -237 -918 -437 -1673 -443 -1677 -6 -4 -23 -8 -37
-8 -25 0 -28 5 -47 83 -12 45 -89 345 -171 666 l-150 584 274 1111 c150 611
281 1152 291 1201 50 263 0 451 -161 610 -82 80 -144 122 -364 246 -129 73
-212 146 -243 216 -30 66 -37 208 -14 286 22 76 70 136 136 170 113 57 92 56
1230 53 925 -1 1051 -4 1096 -18z"/>
</g>
</svg>
