<svg version="1" id="Слой_1" xmlns="http://www.w3.org/2000/svg" viewBox="0 0 800 500"><style>.st0{fill:none}.st1{fill:#585894;stroke:#585894;stroke-miterlimit:10}</style><g id="XMLID_272_"><path id="XMLID_274_" class="st0" d="M399.5 0L398.7 0.5 400.3 0.5z"/><path id="XMLID_290_" class="st0" d="M799.5 249.7L799.5 250.3 800 250z"/><path id="XMLID_293_" class="st1" d="M799.5 0.5L400.3 0.5 599.8 125z"/><path id="XMLID_295_" class="st1" d="M398.7 0.5L-0.5 0.5 199.5 125z"/><path id="XMLID_296_" class="st1" d="M399.5 500.5L799.5 500.5 599.8 375.3z"/><path id="XMLID_300_" class="st1" d="M799.5 500.5L799.5 250.3 599.8 375.3z"/><path id="XMLID_301_" class="st1" d="M799.5 249.7L799.5 0.5 599.8 125z"/><path id="XMLID_302_" class="st1" d="M599.8 125L400.3 0.5 398.7 0.5 199.5 125 -0.5 250 199.5 375.3 399.5 500.5 599.8 375.3 799.5 250.3 799.5 249.7z"/><path id="XMLID_303_" class="st1" d="M-0.5 500.5L399.5 500.5 199.5 375.3z"/><path id="XMLID_304_" class="st1" d="M-0.5 250L-0.5 500.5 199.5 375.3z"/><path id="XMLID_305_" class="st1" d="M-0.5 0.5L-0.5 250 199.5 125z"/></g></svg>