<?xml version="1.0" encoding="utf-8"?>
<!-- Generator: Adobe Illustrator 19.0.0, SVG Export Plug-In . SVG Version: 6.00 Build 0)  -->
<svg version="1.1" id="Слой_1" xmlns="http://www.w3.org/2000/svg" xmlns:xlink="http://www.w3.org/1999/xlink" x="0px" y="0px"
	 viewBox="0 0 800 500" style="enable-background:new 0 0 800 500;" xml:space="preserve">
<style type="text/css">
	.st0{fill:none;}
	.st1{fill:#585894;stroke:#585894;stroke-miterlimit:10;}
</style>
<g id="XMLID_272_">
	<polygon id="XMLID_274_" class="st0" points="399.5,0 398.7,0.5 400.3,0.5 	"/>
	<polygon id="XMLID_290_" class="st0" points="799.5,249.7 799.5,250.3 800,250 	"/>
	<polygon id="XMLID_293_" class="st1" points="799.5,0.5 400.3,0.5 599.8,125 	"/>
	<polygon id="XMLID_295_" class="st1" points="398.7,0.5 -0.5,0.5 199.5,125 	"/>
	<polygon id="XMLID_296_" class="st1" points="399.5,500.5 799.5,500.5 599.8,375.3 	"/>
	<polygon id="XMLID_300_" class="st1" points="799.5,500.5 799.5,250.3 599.8,375.3 	"/>
	<polygon id="XMLID_301_" class="st1" points="799.5,249.7 799.5,0.5 599.8,125 	"/>
	<polygon id="XMLID_302_" class="st1" points="599.8,125 400.3,0.5 398.7,0.5 199.5,125 -0.5,250 199.5,375.3 399.5,500.5 
		599.8,375.3 799.5,250.3 799.5,249.7 	"/>
	<polygon id="XMLID_303_" class="st1" points="-0.5,500.5 399.5,500.5 199.5,375.3 	"/>
	<polygon id="XMLID_304_" class="st1" points="-0.5,250 -0.5,500.5 199.5,375.3 	"/>
	<polygon id="XMLID_305_" class="st1" points="-0.5,0.5 -0.5,250 199.5,125 	"/>
</g>
</svg>
